# xmcd CD database file
#
# Track frame offsets:
#	150
#	18482
#	37942
#	63542
#	84340
#
# Disc length: 1308 seconds
#
# Revision: 0
# Processed by: cddbd v1.5.1PL0 Copyright (c) Steve Scherf et al.
# Submitted via: CDex 1.51
#
DISCID=33051a05
DTITLE=Human Touch - This World
DYEAR=1900
DGENRE=Jazz
TTITLE0=Walking Down The Street
TTITLE1=Why You Had To Go
TTITLE2=African Herb
TTITLE3=Right In Time
TTITLE4=This World
EXTD=
EXTT0=
EXTT1=
EXTT2=
EXTT3=
EXTT4=
PLAYORDER=
